<svg width="38" height="38" viewBox="0 0 38 38" fill="none" xmlns="http://www.w3.org/2000/svg">
<path d="M33.6509 0H4.71033C2.66117 0 1 1.65176 1 3.68932V34.3107C1 36.3482 2.66117 38 4.71033 38H33.6509C35.7001 38 37.3613 36.3482 37.3613 34.3107V3.68932C37.3613 1.65176 35.7001 0 33.6509 0Z" fill="#299D8B"/>
<path d="M26.9058 14.0005L26.029 13.322C26.4239 12.8273 26.65 12.2205 26.6747 11.5894C26.6903 11.1984 26.6273 10.8083 26.4893 10.4419C26.3514 10.0755 26.1412 9.74015 25.8713 9.45552C25.4634 9.02328 24.9369 8.7196 24.357 8.58213C23.7772 8.44467 23.1695 8.47947 22.6094 8.68221C22.0493 8.88496 21.5613 9.24673 21.206 9.72267C20.8507 10.1986 20.6438 10.7678 20.6108 11.3596C20.6041 11.5497 20.6139 11.7401 20.6401 11.9286L19.5396 12.0855C19.5025 11.8319 19.489 11.5755 19.4993 11.3195C19.5352 10.5061 19.8126 9.72148 20.2965 9.06467C20.7804 8.40787 21.4491 7.90827 22.2182 7.6289C22.9873 7.34954 23.8224 7.30291 24.6181 7.49491C25.4138 7.68691 26.1345 8.10894 26.6893 8.70775C27.3595 9.41663 27.7502 10.3419 27.79 11.314C27.8297 12.2861 27.5158 13.2398 26.9058 14.0005ZM26.5169 30.1558L27.8009 26.738C29.2361 25.2841 30.0476 23.3329 30.0643 21.2957C30.0643 18.6403 28.6189 16.1161 26.2051 14.5367C24.5212 13.4519 22.5547 12.8813 20.5484 12.8952C20.0834 12.8931 19.6188 12.9236 19.1581 12.9864C17.7763 13.1693 16.4461 13.6283 15.2476 14.336C14.2608 13.7488 12.8484 13.3986 11.0179 13.8728C10.8878 13.9067 10.7667 13.9686 10.6633 14.0542C10.56 14.1398 10.4768 14.247 10.4197 14.3682C10.3627 14.4893 10.3331 14.6214 10.3332 14.7552C10.3332 14.889 10.3628 15.0211 10.4199 15.1422L11.5535 17.5606L10.2035 19.2895L9.23138 19.4026C9.01138 19.4281 8.8081 19.5319 8.65908 19.6948C8.51006 19.8578 8.42537 20.0688 8.42066 20.289V24.7245C8.42026 24.8804 8.46021 25.0337 8.53666 25.1698C8.61312 25.3059 8.7235 25.4201 8.8572 25.5015L12.4816 27.7265L13.3363 30.1412C13.3994 30.3194 13.5166 30.4738 13.6717 30.5829C13.8267 30.692 14.0121 30.7505 14.2021 30.7504H17.0011C17.1706 30.7508 17.337 30.7043 17.4814 30.616C17.6259 30.5278 17.7428 30.4013 17.8191 30.2507L18.263 29.3862L21.825 29.0579L22.2359 30.1522C22.3004 30.3272 22.4172 30.4783 22.5707 30.5853C22.7241 30.6922 22.9069 30.7498 23.0943 30.7504H25.6622C25.8487 30.7499 26.0305 30.6927 26.1833 30.5864C26.3361 30.4801 26.4525 30.3298 26.5169 30.1558ZM23.3034 27.7703C23.2338 27.5821 23.1037 27.4222 22.9331 27.3153C22.7626 27.2084 22.5613 27.1606 22.3606 27.1794L17.5917 27.6171C17.4371 27.631 17.2886 27.6838 17.1602 27.7706C17.0318 27.8574 16.9278 27.9753 16.858 28.1132L16.4398 28.9266H14.8514L14.1177 26.8146C14.0516 26.6215 13.9224 26.4559 13.7509 26.3441L10.2549 24.2175V21.0988L10.7978 21.0367C10.9185 21.0227 11.0352 20.9848 11.1411 20.9253C11.2469 20.8658 11.3397 20.7859 11.4141 20.6902L13.3437 18.2208C13.4476 18.0886 13.5129 17.9305 13.5324 17.7638C13.5518 17.5971 13.5246 17.4283 13.4537 17.276L12.599 15.4522C13.1015 15.4139 13.6052 15.5109 14.0571 15.733C14.5089 15.955 14.8923 16.294 15.1669 16.7143C15.2853 16.9188 15.4788 17.0697 15.7068 17.1353C15.9347 17.2009 16.1794 17.176 16.3893 17.066C16.5992 16.956 16.7581 16.7693 16.8325 16.5452C16.9069 16.3211 16.8911 16.0771 16.7883 15.8644C16.7479 15.7878 16.7003 15.7076 16.6489 15.6273C17.5093 15.1956 18.4371 14.9119 19.3929 14.7884C19.7736 14.7393 20.1572 14.7149 20.5411 14.7154C22.1892 14.7004 23.8054 15.1672 25.189 16.0577C27.1295 17.3198 28.2301 19.2275 28.2301 21.2957C28.2193 22.0994 28.0484 22.8929 27.7273 23.6304C27.4061 24.368 26.9411 25.0349 26.3592 25.5926C26.2667 25.6846 26.1954 25.7953 26.1501 25.9173L25.0202 28.9266H23.7326L23.3034 27.7703Z" fill="white"/>
</svg>
